PathFileType	4	(X/Y/Z)	Patient4_TMGait_0pt7_01_left_15.trc.trc
DataRate	CameraRate	NumFrames	NumMarkers	Units	OrigDataRate	OrigDataStartFrame	OrigNumFrames
87.500000000000	87.500000000000	4	33	mm	87.500000000000	53	       141
Frame#	Time	Sacral			L.Shoulder			Chest			R.Shoulder			Neck			R.ASIS			L.ASIS			R.Thigh.Superior			R.Thigh.Lateral			R.Thigh.Inferior			R.Patella			L.Thigh.Superior			L.Thigh.Lateral			L.Thigh.Inferior			L.Patella			L.Shank.Superior			L.Shank.Lateral			L.Shank.Inferior			R.Shank.Superior			R.Shank.Lateral			R.Shank.Inferior			R.Heel			R.Midfoot.Superior			R.Midfoot.Lateral			R.Toe			L.Heel			L.Midfoot.Lateral			L.Midfoot.Superior			L.Toe			L.Elbow			L.Wrist			R.Elbow			R.Wrist			
		X1	Y1	Z1	X2	Y2	Z2	X3	Y3	Z3	X4	Y4	Z4	X5	Y5	Z5	X6	Y6	Z6	X7	Y7	Z7	X8	Y8	Z8	X9	Y9	Z9	X10	Y10	Z10	X11	Y11	Z11	X12	Y12	Z12	X13	Y13	Z13	X14	Y14	Z14	X15	Y15	Z15	X16	Y16	Z16	X17	Y17	Z17	X18	Y18	Z18	X19	Y19	Z19	X20	Y20	Z20	X21	Y21	Z21	X22	Y22	Z22	X23	Y23	Z23	X24	Y24	Z24	X25	Y25	Z25	X26	Y26	Z26	X27	Y27	Z27	X28	Y28	Z28	X29	Y29	Z29	X30	Y30	Z30	X31	Y31	Z31	X32	Y32	Z32	X33	Y33	Z33	

53	17.764285714286	828.392344486383	1008.841445656397	445.862685021810	1024.332371464666	1432.621115368678	265.928223390194	1118.305277985429	1361.478250802777	432.824234751288	1030.239234159463	1442.622118985453	602.176514159358	1024.954258928267	1497.238878963729	420.606677367897	1052.360071543855	946.348970228418	566.692596021300	1045.606689855117	967.361139699093	292.881442772184	1145.817848194586	790.327707551887	541.327696302505	1116.325896578796	668.910284972636	620.547560294535	1212.933034118765	636.765970312113	546.058472770158	1239.535492792835	521.986593859296	571.038532483923	1086.344048476764	752.946535475915	316.999002798103	989.204717244186	641.338042233142	260.707574274867	1070.161534877708	559.785581683799	322.002652924203	1066.765631106380	492.033366519907	332.806147469212	1042.608793106188	421.585197425800	325.426856681416	953.623017722955	304.618948104456	280.012866357253	1011.441496320320	196.146159771479	351.100485611721	1161.295166470131	445.697776683513	574.456688219218	1034.678743314499	411.159762222540	626.718984879018	1019.530348359022	302.414175831697	578.573199032404	819.659533754847	252.491364369250	536.372816865521	979.488169638985	181.227282787288	590.860948655873	868.333309707794	191.493439819196	615.963887508570	1031.467232885552	64.893168294986	625.742746826450	888.159483226816	38.561507160303	400.969377403726	959.236830312608	35.298772155598	317.153712687810	1042.470804060665	96.787631853273	340.423944894534	1170.304315298507	46.738689497937	308.558947834537	999.944507257633	1080.599333900089	149.919056731449	1113.040673696213	845.338596798948	156.735507428102	975.422185766886	1103.654812789416	722.262443770419	1207.765171660931	1012.564229820699	665.000300847403	
54	17.775714285714	827.493162305350	1008.967422623821	444.816719422179	1025.084043009470	1432.761790400021	265.436801793119	1117.942942056033	1361.462802337155	432.940670928523	1028.958705142338	1442.711957173630	601.607554879693	1024.926336032690	1497.337027714949	420.017651973441	1051.096126788513	947.181196133604	566.491014363965	1045.008018070428	967.372459430709	292.672937919801	1146.341072483600	793.934683189581	540.554137054485	1119.721057426817	672.333526590535	620.576704744747	1216.456688354453	641.645843684478	545.818101812260	1245.535777334922	527.907568154856	571.083902705964	1083.756031160805	752.042171254150	317.558412982900	985.473987702660	641.366791485498	260.495891750115	1064.905026317223	558.912421593388	322.279485287286	1060.601534797508	491.354587355473	333.188064431487	1036.384241515456	421.201945776685	325.661534287834	947.082610671921	304.637547087492	280.028732728191	1004.100817482043	195.939667040104	351.298048699411	1170.057541466753	449.267519016895	575.106984051881	1045.445548585373	409.901108620388	628.670270734151	1033.931687812359	300.544709105341	580.654206808095	835.561356570403	242.889011775097	540.767786263891	998.824825977051	177.960613143436	593.548594632014	887.455599755633	183.648515060078	619.648842064114	1055.667157371812	63.519485068992	627.371081991645	880.091647477422	38.565940133089	400.977387659141	951.205299592617	35.329919358867	317.177292758946	1034.485012820667	96.708612802251	340.526130766371	1162.298834527396	46.566644502097	308.560378615753	1008.383385401945	1081.335333835180	146.803797648699	1133.074150320407	852.088082746286	154.422866750595	966.163859469191	1105.007841979473	721.128481121588	1191.370801858241	991.338537661019	670.607178536976	
55	17.787142857143	826.547424829677	1009.052698625169	443.838910483902	1025.946963743243	1432.788164140957	265.048014801361	1117.682947255290	1361.293445915582	433.126825099925	1027.829428256104	1442.694009695265	601.091388530504	1024.990444494823	1497.312872531966	419.523494014199	1049.812912421439	947.864047748134	566.447095328142	1044.408441464907	967.196240992573	292.590193678323	1146.582992758141	797.100925752453	539.999892824029	1122.400086933120	675.296682342070	620.645401234898	1219.231492742783	645.877867116247	545.701898445232	1250.553019372333	533.394052397360	571.171587753336	1081.145253598685	751.077100602422	318.331982306686	981.875062621554	641.324251095164	260.350601645405	1059.734534837814	558.019845273915	322.683296160921	1054.559175188585	490.661638322457	333.633137613740	1030.255318902209	420.775456660572	325.968120435463	940.648275553596	304.627731030355	280.051397241145	996.797810304408	195.696900532304	351.538057086879	1178.201865571676	452.385908523989	575.846655982267	1056.101235862180	407.705537835039	630.864032556069	1048.737935518441	297.831746370907	583.032335550572	852.527944928763	231.584029246542	545.582290778966	1019.215767563990	173.948217771973	596.750068116794	907.810211842616	174.662571303170	623.841292394983	1081.260284507473	61.854988552700	629.755111261129	872.030345379200	38.563917470032	400.986733580780	943.174453378269	35.353718991668	317.209452426506	1026.505220143915	96.626087453677	340.652575745927	1154.300886839923	46.379085720808	308.577482935783	1016.358794753477	1082.219338566380	143.812621161188	1152.736639782391	859.831150718083	152.520980602879	957.873517798987	1106.118145723790	720.109387212881	1173.347710708067	970.720290858278	676.445298093991	
56	17.798571428571	825.563598703546	1009.113582972612	442.923733275157	1026.924283235265	1432.705368241071	264.768343240103	1117.529859897424	1360.971867264565	433.385952271892	1026.861325078250	1442.566183652934	600.653756973736	1025.151541180572	1497.173519599166	419.131888720026	1048.523731884442	948.389075725223	566.557019559632	1043.842151685381	966.851596057704	292.619527482275	1146.537561985221	799.762405249710	539.669419965789	1124.307350105015	677.718822721944	620.748171455519	1221.198613781777	649.354685157638	545.705493924856	1254.516524630054	538.344025503889	571.297197699528	1078.526559897124	750.052182977449	319.260761141321	978.386214702301	641.215933201591	260.268897562926	1054.650695214557	557.109016007071	323.180298598465	1048.646216780212	489.959910991433	334.110261955758	1024.216584859134	420.311165744029	326.324219750996	934.298595614414	304.596184905572	280.076774147689	989.526418003308	195.421456293873	351.804420582618	1185.646568944592	455.025307241513	576.670178752463	1066.630018495375	404.630163606625	633.267673738371	1063.926256107697	294.402359256836	585.662779617594	870.684842162992	218.783292290426	550.726881410861	1040.625732556628	169.394105485833	600.356167378809	929.448732698686	164.767657967372	628.444401883958	1108.159050528873	60.210262610800	632.782688956485	863.977190016622	38.559630521662	400.992166653871	935.143794920822	35.370593615924	317.247461698685	1018.532480026882	96.540236946149	340.796852792695	1146.310191410021	46.169846650466	308.608325670026	1023.830001952242	1083.213862283108	140.977451653761	1171.894045076725	868.558814323492	151.041340608419	950.526232862946	1106.921600363119	719.220493607806	1153.695637709411	950.861215897229	682.502715841393	
